<mxfile host="app.diagrams.net" modified="2021-07-05T09:51:15.666Z" agent="5.0 (Windows NT 10.0; Win64; x64) AppleWebKit/537.36 (KHTML, like Gecko) Chrome/91.0.4472.124 Safari/537.36 Edg/91.0.864.64" etag="M_tlFLZ9aUH9VyUWHImF" version="14.8.4" type="github">
  <diagram id="C5RBs43oDa-KdzZeNtuy" name="Page-1">
    <mxGraphModel dx="3910" dy="3739" grid="1" gridSize="10" guides="1" tooltips="1" connect="1" arrows="1" fold="1" page="1" pageScale="1" pageWidth="827" pageHeight="1169" math="0" shadow="0">
      <root>
        <mxCell id="WIyWlLk6GJQsqaUBKTNV-0" />
        <mxCell id="WIyWlLk6GJQsqaUBKTNV-1" parent="WIyWlLk6GJQsqaUBKTNV-0" />
        <mxCell id="DrpjT_IR7G9uRsINrE51-44" style="edgeStyle=orthogonalEdgeStyle;rounded=0;orthogonalLoop=1;jettySize=auto;html=1;entryX=0.5;entryY=0;entryDx=0;entryDy=0;" edge="1" parent="WIyWlLk6GJQsqaUBKTNV-1" source="DrpjT_IR7G9uRsINrE51-0" target="DrpjT_IR7G9uRsINrE51-2">
          <mxGeometry relative="1" as="geometry" />
        </mxCell>
        <mxCell id="DrpjT_IR7G9uRsINrE51-0" value="开始" style="ellipse;whiteSpace=wrap;html=1;" vertex="1" parent="WIyWlLk6GJQsqaUBKTNV-1">
          <mxGeometry x="160" y="-50" width="120" height="80" as="geometry" />
        </mxCell>
        <mxCell id="DrpjT_IR7G9uRsINrE51-45" style="edgeStyle=orthogonalEdgeStyle;rounded=0;orthogonalLoop=1;jettySize=auto;html=1;entryX=0.5;entryY=0;entryDx=0;entryDy=0;" edge="1" parent="WIyWlLk6GJQsqaUBKTNV-1" source="DrpjT_IR7G9uRsINrE51-2" target="DrpjT_IR7G9uRsINrE51-4">
          <mxGeometry relative="1" as="geometry" />
        </mxCell>
        <mxCell id="DrpjT_IR7G9uRsINrE51-2" value="输入当前月份，&lt;br&gt;员工个数numOfEmployee" style="shape=parallelogram;perimeter=parallelogramPerimeter;whiteSpace=wrap;html=1;fixedSize=1;" vertex="1" parent="WIyWlLk6GJQsqaUBKTNV-1">
          <mxGeometry x="160" y="70" width="120" height="60" as="geometry" />
        </mxCell>
        <mxCell id="DrpjT_IR7G9uRsINrE51-7" style="edgeStyle=orthogonalEdgeStyle;rounded=0;orthogonalLoop=1;jettySize=auto;html=1;entryX=0.5;entryY=0;entryDx=0;entryDy=0;" edge="1" parent="WIyWlLk6GJQsqaUBKTNV-1" source="DrpjT_IR7G9uRsINrE51-4" target="DrpjT_IR7G9uRsINrE51-5">
          <mxGeometry relative="1" as="geometry" />
        </mxCell>
        <mxCell id="DrpjT_IR7G9uRsINrE51-4" value="输入员工&lt;br&gt;类型选择&lt;br&gt;choice" style="shape=parallelogram;perimeter=parallelogramPerimeter;whiteSpace=wrap;html=1;fixedSize=1;" vertex="1" parent="WIyWlLk6GJQsqaUBKTNV-1">
          <mxGeometry x="160" y="250" width="120" height="60" as="geometry" />
        </mxCell>
        <mxCell id="DrpjT_IR7G9uRsINrE51-11" style="edgeStyle=orthogonalEdgeStyle;rounded=0;orthogonalLoop=1;jettySize=auto;html=1;entryX=0;entryY=0.5;entryDx=0;entryDy=0;" edge="1" parent="WIyWlLk6GJQsqaUBKTNV-1" source="DrpjT_IR7G9uRsINrE51-5" target="DrpjT_IR7G9uRsINrE51-8">
          <mxGeometry relative="1" as="geometry" />
        </mxCell>
        <mxCell id="DrpjT_IR7G9uRsINrE51-23" style="edgeStyle=orthogonalEdgeStyle;rounded=0;orthogonalLoop=1;jettySize=auto;html=1;entryX=0.5;entryY=0;entryDx=0;entryDy=0;" edge="1" parent="WIyWlLk6GJQsqaUBKTNV-1" source="DrpjT_IR7G9uRsINrE51-5" target="DrpjT_IR7G9uRsINrE51-19">
          <mxGeometry relative="1" as="geometry" />
        </mxCell>
        <mxCell id="DrpjT_IR7G9uRsINrE51-5" value="choice==1？" style="rhombus;whiteSpace=wrap;html=1;" vertex="1" parent="WIyWlLk6GJQsqaUBKTNV-1">
          <mxGeometry x="160" y="350" width="120" height="80" as="geometry" />
        </mxCell>
        <mxCell id="DrpjT_IR7G9uRsINrE51-12" style="edgeStyle=orthogonalEdgeStyle;rounded=0;orthogonalLoop=1;jettySize=auto;html=1;entryX=0;entryY=0.5;entryDx=0;entryDy=0;" edge="1" parent="WIyWlLk6GJQsqaUBKTNV-1" source="DrpjT_IR7G9uRsINrE51-8" target="DrpjT_IR7G9uRsINrE51-9">
          <mxGeometry relative="1" as="geometry" />
        </mxCell>
        <mxCell id="DrpjT_IR7G9uRsINrE51-24" style="edgeStyle=orthogonalEdgeStyle;rounded=0;orthogonalLoop=1;jettySize=auto;html=1;entryX=0.5;entryY=0;entryDx=0;entryDy=0;" edge="1" parent="WIyWlLk6GJQsqaUBKTNV-1" source="DrpjT_IR7G9uRsINrE51-8" target="DrpjT_IR7G9uRsINrE51-28">
          <mxGeometry relative="1" as="geometry">
            <mxPoint x="370" y="470" as="targetPoint" />
          </mxGeometry>
        </mxCell>
        <mxCell id="DrpjT_IR7G9uRsINrE51-8" value="choice==2？" style="rhombus;whiteSpace=wrap;html=1;" vertex="1" parent="WIyWlLk6GJQsqaUBKTNV-1">
          <mxGeometry x="310" y="350" width="120" height="80" as="geometry" />
        </mxCell>
        <mxCell id="DrpjT_IR7G9uRsINrE51-13" style="edgeStyle=orthogonalEdgeStyle;rounded=0;orthogonalLoop=1;jettySize=auto;html=1;entryX=0;entryY=0.5;entryDx=0;entryDy=0;" edge="1" parent="WIyWlLk6GJQsqaUBKTNV-1" source="DrpjT_IR7G9uRsINrE51-9" target="DrpjT_IR7G9uRsINrE51-10">
          <mxGeometry relative="1" as="geometry" />
        </mxCell>
        <mxCell id="DrpjT_IR7G9uRsINrE51-25" style="edgeStyle=orthogonalEdgeStyle;rounded=0;orthogonalLoop=1;jettySize=auto;html=1;entryX=0.5;entryY=0;entryDx=0;entryDy=0;" edge="1" parent="WIyWlLk6GJQsqaUBKTNV-1" source="DrpjT_IR7G9uRsINrE51-9" target="DrpjT_IR7G9uRsINrE51-29">
          <mxGeometry relative="1" as="geometry">
            <mxPoint x="520" y="470" as="targetPoint" />
          </mxGeometry>
        </mxCell>
        <mxCell id="DrpjT_IR7G9uRsINrE51-9" value="choice==3？" style="rhombus;whiteSpace=wrap;html=1;" vertex="1" parent="WIyWlLk6GJQsqaUBKTNV-1">
          <mxGeometry x="460" y="350" width="120" height="80" as="geometry" />
        </mxCell>
        <mxCell id="DrpjT_IR7G9uRsINrE51-14" style="edgeStyle=orthogonalEdgeStyle;rounded=0;orthogonalLoop=1;jettySize=auto;html=1;entryX=0.5;entryY=0;entryDx=0;entryDy=0;" edge="1" parent="WIyWlLk6GJQsqaUBKTNV-1" source="DrpjT_IR7G9uRsINrE51-10" target="DrpjT_IR7G9uRsINrE51-4">
          <mxGeometry relative="1" as="geometry">
            <mxPoint x="670" y="240" as="targetPoint" />
            <Array as="points">
              <mxPoint x="670" y="210" />
              <mxPoint x="220" y="210" />
            </Array>
          </mxGeometry>
        </mxCell>
        <mxCell id="DrpjT_IR7G9uRsINrE51-26" style="edgeStyle=orthogonalEdgeStyle;rounded=0;orthogonalLoop=1;jettySize=auto;html=1;entryX=0.5;entryY=0;entryDx=0;entryDy=0;" edge="1" parent="WIyWlLk6GJQsqaUBKTNV-1" source="DrpjT_IR7G9uRsINrE51-10" target="DrpjT_IR7G9uRsINrE51-30">
          <mxGeometry relative="1" as="geometry">
            <mxPoint x="670" y="470" as="targetPoint" />
          </mxGeometry>
        </mxCell>
        <mxCell id="DrpjT_IR7G9uRsINrE51-10" value="choice==4？" style="rhombus;whiteSpace=wrap;html=1;" vertex="1" parent="WIyWlLk6GJQsqaUBKTNV-1">
          <mxGeometry x="610" y="350" width="120" height="80" as="geometry" />
        </mxCell>
        <mxCell id="DrpjT_IR7G9uRsINrE51-15" value="N" style="text;html=1;align=center;verticalAlign=middle;resizable=0;points=[];autosize=1;strokeColor=none;" vertex="1" parent="WIyWlLk6GJQsqaUBKTNV-1">
          <mxGeometry x="670" y="330" width="20" height="20" as="geometry" />
        </mxCell>
        <mxCell id="DrpjT_IR7G9uRsINrE51-16" value="N" style="text;html=1;align=center;verticalAlign=middle;resizable=0;points=[];autosize=1;strokeColor=none;" vertex="1" parent="WIyWlLk6GJQsqaUBKTNV-1">
          <mxGeometry x="280" y="370" width="20" height="20" as="geometry" />
        </mxCell>
        <mxCell id="DrpjT_IR7G9uRsINrE51-17" value="N" style="text;html=1;align=center;verticalAlign=middle;resizable=0;points=[];autosize=1;strokeColor=none;" vertex="1" parent="WIyWlLk6GJQsqaUBKTNV-1">
          <mxGeometry x="430" y="370" width="20" height="20" as="geometry" />
        </mxCell>
        <mxCell id="DrpjT_IR7G9uRsINrE51-18" value="N" style="text;html=1;align=center;verticalAlign=middle;resizable=0;points=[];autosize=1;strokeColor=none;" vertex="1" parent="WIyWlLk6GJQsqaUBKTNV-1">
          <mxGeometry x="580" y="370" width="20" height="20" as="geometry" />
        </mxCell>
        <mxCell id="DrpjT_IR7G9uRsINrE51-31" style="edgeStyle=orthogonalEdgeStyle;rounded=0;orthogonalLoop=1;jettySize=auto;html=1;entryX=0.5;entryY=0;entryDx=0;entryDy=0;" edge="1" parent="WIyWlLk6GJQsqaUBKTNV-1" source="DrpjT_IR7G9uRsINrE51-19" target="DrpjT_IR7G9uRsINrE51-27">
          <mxGeometry relative="1" as="geometry" />
        </mxCell>
        <mxCell id="DrpjT_IR7G9uRsINrE51-19" value="输入员工&lt;br&gt;的姓名、&lt;br&gt;出生年月、基本工资、月工时、&lt;br&gt;每小时加班费" style="shape=parallelogram;perimeter=parallelogramPerimeter;whiteSpace=wrap;html=1;fixedSize=1;" vertex="1" parent="WIyWlLk6GJQsqaUBKTNV-1">
          <mxGeometry x="160" y="470" width="120" height="80" as="geometry" />
        </mxCell>
        <mxCell id="DrpjT_IR7G9uRsINrE51-35" style="edgeStyle=orthogonalEdgeStyle;rounded=0;orthogonalLoop=1;jettySize=auto;html=1;entryX=0.5;entryY=0;entryDx=0;entryDy=0;" edge="1" parent="WIyWlLk6GJQsqaUBKTNV-1" source="DrpjT_IR7G9uRsINrE51-27" target="DrpjT_IR7G9uRsINrE51-4">
          <mxGeometry relative="1" as="geometry">
            <Array as="points">
              <mxPoint x="90" y="680" />
              <mxPoint x="90" y="210" />
              <mxPoint x="220" y="210" />
            </Array>
          </mxGeometry>
        </mxCell>
        <mxCell id="DrpjT_IR7G9uRsINrE51-41" style="edgeStyle=orthogonalEdgeStyle;rounded=0;orthogonalLoop=1;jettySize=auto;html=1;entryX=0.5;entryY=0;entryDx=0;entryDy=0;" edge="1" parent="WIyWlLk6GJQsqaUBKTNV-1" source="DrpjT_IR7G9uRsINrE51-27" target="DrpjT_IR7G9uRsINrE51-39">
          <mxGeometry relative="1" as="geometry" />
        </mxCell>
        <mxCell id="DrpjT_IR7G9uRsINrE51-27" value="所有员工信息&lt;br&gt;都输入完了？" style="rhombus;whiteSpace=wrap;html=1;" vertex="1" parent="WIyWlLk6GJQsqaUBKTNV-1">
          <mxGeometry x="160" y="640" width="120" height="80" as="geometry" />
        </mxCell>
        <mxCell id="DrpjT_IR7G9uRsINrE51-32" style="edgeStyle=orthogonalEdgeStyle;rounded=0;orthogonalLoop=1;jettySize=auto;html=1;entryX=0.5;entryY=0;entryDx=0;entryDy=0;" edge="1" parent="WIyWlLk6GJQsqaUBKTNV-1" source="DrpjT_IR7G9uRsINrE51-28" target="DrpjT_IR7G9uRsINrE51-27">
          <mxGeometry relative="1" as="geometry">
            <Array as="points">
              <mxPoint x="370" y="590" />
              <mxPoint x="220" y="590" />
            </Array>
          </mxGeometry>
        </mxCell>
        <mxCell id="DrpjT_IR7G9uRsINrE51-28" value="输入员工的&lt;br&gt;姓名、&lt;br&gt;出生年月、&lt;br&gt;本月提成" style="shape=parallelogram;perimeter=parallelogramPerimeter;whiteSpace=wrap;html=1;fixedSize=1;" vertex="1" parent="WIyWlLk6GJQsqaUBKTNV-1">
          <mxGeometry x="310" y="470" width="120" height="80" as="geometry" />
        </mxCell>
        <mxCell id="DrpjT_IR7G9uRsINrE51-33" style="edgeStyle=orthogonalEdgeStyle;rounded=0;orthogonalLoop=1;jettySize=auto;html=1;entryX=0.5;entryY=0;entryDx=0;entryDy=0;" edge="1" parent="WIyWlLk6GJQsqaUBKTNV-1" source="DrpjT_IR7G9uRsINrE51-29" target="DrpjT_IR7G9uRsINrE51-27">
          <mxGeometry relative="1" as="geometry">
            <Array as="points">
              <mxPoint x="520" y="590" />
              <mxPoint x="220" y="590" />
            </Array>
          </mxGeometry>
        </mxCell>
        <mxCell id="DrpjT_IR7G9uRsINrE51-29" value="输入员工&lt;br&gt;的姓名、&lt;br&gt;出生年月、月工时、&lt;br&gt;时薪" style="shape=parallelogram;perimeter=parallelogramPerimeter;whiteSpace=wrap;html=1;fixedSize=1;" vertex="1" parent="WIyWlLk6GJQsqaUBKTNV-1">
          <mxGeometry x="460" y="470" width="120" height="80" as="geometry" />
        </mxCell>
        <mxCell id="DrpjT_IR7G9uRsINrE51-34" style="edgeStyle=orthogonalEdgeStyle;rounded=0;orthogonalLoop=1;jettySize=auto;html=1;entryX=0.5;entryY=0;entryDx=0;entryDy=0;" edge="1" parent="WIyWlLk6GJQsqaUBKTNV-1" source="DrpjT_IR7G9uRsINrE51-30" target="DrpjT_IR7G9uRsINrE51-27">
          <mxGeometry relative="1" as="geometry">
            <Array as="points">
              <mxPoint x="670" y="590" />
              <mxPoint x="220" y="590" />
            </Array>
          </mxGeometry>
        </mxCell>
        <mxCell id="DrpjT_IR7G9uRsINrE51-30" value="输入员工的&lt;br&gt;姓名、&lt;br&gt;出生年月、底薪、&lt;br&gt;本月提成" style="shape=parallelogram;perimeter=parallelogramPerimeter;whiteSpace=wrap;html=1;fixedSize=1;" vertex="1" parent="WIyWlLk6GJQsqaUBKTNV-1">
          <mxGeometry x="610" y="470" width="120" height="80" as="geometry" />
        </mxCell>
        <mxCell id="DrpjT_IR7G9uRsINrE51-38" value="N" style="text;html=1;align=center;verticalAlign=middle;resizable=0;points=[];autosize=1;strokeColor=none;" vertex="1" parent="WIyWlLk6GJQsqaUBKTNV-1">
          <mxGeometry x="140" y="650" width="20" height="20" as="geometry" />
        </mxCell>
        <mxCell id="DrpjT_IR7G9uRsINrE51-42" style="edgeStyle=orthogonalEdgeStyle;rounded=0;orthogonalLoop=1;jettySize=auto;html=1;entryX=0.5;entryY=0;entryDx=0;entryDy=0;" edge="1" parent="WIyWlLk6GJQsqaUBKTNV-1" source="DrpjT_IR7G9uRsINrE51-39" target="DrpjT_IR7G9uRsINrE51-40">
          <mxGeometry relative="1" as="geometry" />
        </mxCell>
        <mxCell id="DrpjT_IR7G9uRsINrE51-39" value="输出各员工工资" style="shape=parallelogram;perimeter=parallelogramPerimeter;whiteSpace=wrap;html=1;fixedSize=1;" vertex="1" parent="WIyWlLk6GJQsqaUBKTNV-1">
          <mxGeometry x="160" y="750" width="120" height="60" as="geometry" />
        </mxCell>
        <mxCell id="DrpjT_IR7G9uRsINrE51-40" value="结束" style="ellipse;whiteSpace=wrap;html=1;" vertex="1" parent="WIyWlLk6GJQsqaUBKTNV-1">
          <mxGeometry x="160" y="840" width="120" height="80" as="geometry" />
        </mxCell>
        <mxCell id="DrpjT_IR7G9uRsINrE51-43" value="Y" style="text;html=1;align=center;verticalAlign=middle;resizable=0;points=[];autosize=1;strokeColor=none;" vertex="1" parent="WIyWlLk6GJQsqaUBKTNV-1">
          <mxGeometry x="220" y="720" width="20" height="20" as="geometry" />
        </mxCell>
      </root>
    </mxGraphModel>
  </diagram>
</mxfile>
